<?xml version="1.0" standalone="no"?>
<!DOCTYPE svg PUBLIC "-//W3C//DTD SVG 20010904//EN"
 "http://www.w3.org/TR/2001/REC-SVG-20010904/DTD/svg10.dtd">
<svg version="1.0" xmlns="http://www.w3.org/2000/svg"
 width="25" height="25" viewBox="0 0 225.000000 225.000000"
 preserveAspectRatio="xMidYMid meet">

<g transform="translate(0.000000,225.000000) scale(0.100000,-0.100000)"
fill="#000000" stroke="none">
<path d="M762 2238 c-19 -19 -15 -31 38 -120 27 -46 50 -86 50 -90 0 -3 -19
-17 -43 -31 -61 -36 -171 -157 -206 -225 -34 -68 -57 -145 -66 -223 -11 -96
-57 -89 590 -89 638 0 599 -5 589 78 -18 153 -66 262 -161 363 -37 39 -86 82
-110 96 -24 14 -43 28 -43 31 0 4 23 45 50 91 52 86 57 106 29 124 -27 17 -44
2 -92 -80 -26 -43 -51 -84 -55 -91 -7 -10 -21 -10 -73 3 -82 19 -186 19 -268
0 -52 -13 -66 -13 -72 -3 -108 180 -125 198 -157 166z m494 -242 c194 -52 342
-217 378 -423 l6 -33 -515 0 c-283 0 -515 3 -515 8 1 34 37 146 62 195 60 113
193 218 317 253 62 17 204 17 267 0z"/>
<path d="M824 1775 c-3 -14 -3 -36 0 -51 6 -23 10 -25 54 -22 41 3 47 6 50 27
2 12 1 34 -2 47 -6 21 -12 24 -51 24 -39 0 -45 -3 -51 -25z"/>
<path d="M1324 1776 c-3 -13 -4 -35 -2 -47 3 -21 9 -24 50 -27 44 -3 48 -1 54
22 3 15 3 37 0 51 -6 22 -12 25 -51 25 -39 0 -45 -3 -51 -24z"/>
<path d="M293 1404 c-18 -9 -42 -31 -53 -50 -20 -31 -21 -45 -18 -358 l3 -325
29 -30 c60 -63 142 -63 201 -1 l30 31 3 325 c3 313 2 327 -18 359 -37 59 -113
80 -177 49z m114 -94 c9 -18 13 -100 13 -306 0 -270 -1 -282 -21 -308 -25 -31
-59 -34 -85 -5 -18 20 -19 40 -19 319 0 332 0 333 64 328 26 -2 39 -10 48 -28z"/>
<path d="M540 1400 c-17 -33 -9 -857 9 -890 40 -72 98 -110 170 -110 l50 0 3
-149 c3 -161 8 -178 69 -223 60 -45 167 -27 211 35 21 29 23 47 28 182 l5 150
40 0 40 0 5 -150 c5 -135 7 -153 28 -182 44 -62 151 -80 211 -35 61 45 66 62
69 223 l3 149 50 0 c72 0 130 38 170 110 18 33 26 857 9 890 -11 20 -18 20
-585 20 -567 0 -574 0 -585 -20z m1100 -455 l0 -395 -34 -37 c-32 -35 -37 -37
-107 -41 -41 -2 -80 -9 -86 -14 -10 -8 -13 -55 -13 -173 l0 -164 -26 -20 c-33
-26 -75 -27 -105 -2 -23 19 -24 25 -29 193 l-5 173 -110 0 -110 0 -5 -165 c-5
-166 -12 -201 -46 -214 -31 -12 -68 -6 -91 16 -22 21 -23 27 -23 183 0 112 -4
165 -12 173 -7 7 -38 12 -71 12 -70 0 -117 20 -140 59 -15 26 -17 69 -17 420
l0 391 515 0 515 0 0 -395z"/>
<path d="M1831 1403 c-18 -9 -42 -31 -52 -47 -18 -29 -19 -52 -17 -358 l3
-327 29 -30 c60 -63 142 -63 201 -1 l30 31 3 322 c2 298 1 325 -16 356 -35 64
-113 87 -181 54z m105 -77 c18 -14 19 -29 19 -314 0 -281 -1 -301 -19 -321
-26 -29 -60 -26 -86 6 -20 26 -21 34 -18 318 3 316 5 325 57 325 15 0 36 -6
47 -14z"/>
</g>
</svg>
