<?xml version="1.0" standalone="no"?>
<!DOCTYPE svg PUBLIC "-//W3C//DTD SVG 20010904//EN"
 "http://www.w3.org/TR/2001/REC-SVG-20010904/DTD/svg10.dtd">
<svg version="1.0" xmlns="http://www.w3.org/2000/svg"
 width="25" height="25" viewBox="0 0 980.000000 980.000000"
 preserveAspectRatio="xMidYMid meet">

<g transform="translate(0.000000,980.000000) scale(0.100000,-0.100000)"
fill="#000000" stroke="none">
<path d="M4335 9789 c-518 -40 -1113 -266 -1526 -580 -619 -470 -941 -1321
-971 -2564 l-3 -129 35 -8 c19 -4 69 -14 111 -23 l77 -16 5 -332 c3 -183 11
-368 17 -412 48 -340 203 -788 391 -1129 117 -212 299 -475 505 -727 57 -70
104 -131 106 -137 2 -7 -13 -19 -32 -29 -47 -24 -100 -97 -160 -221 -30 -62
-69 -123 -96 -152 -113 -121 -418 -286 -894 -485 -96 -40 -254 -108 -350 -150
-239 -105 -336 -143 -556 -218 -502 -172 -624 -253 -812 -536 -153 -232 -160
-267 -172 -931 -5 -267 -9 -603 -10 -747 l0 -263 4900 0 4900 0 0 1426 0 1426
-305 409 -305 410 1 387 c1 213 4 398 8 410 4 16 19 28 46 38 53 18 120 90
135 144 21 79 -9 160 -78 206 -22 15 -57 25 -110 31 -100 11 -1134 11 -1234 0
-97 -11 -134 -34 -170 -106 -37 -73 -37 -125 1 -181 31 -46 102 -100 133 -100
11 0 23 -11 28 -26 6 -15 10 -185 10 -413 l0 -388 -211 -284 c-309 -414 -368
-489 -392 -489 -29 0 -217 82 -384 166 -289 147 -472 293 -508 404 -41 126
-95 208 -155 235 -22 10 -40 21 -40 24 0 3 39 51 86 106 251 291 429 556 587
871 234 467 323 786 372 1334 8 96 23 236 32 310 21 166 23 690 4 845 -77 618
-325 1234 -672 1665 -103 129 -323 350 -444 447 -418 335 -1206 535 -1900 482z
m621 -423 c401 -60 717 -172 975 -344 168 -113 307 -253 485 -492 113 -151
112 -130 7 -230 -101 -95 -157 -160 -231 -270 -48 -72 -114 -197 -125 -239 -5
-20 -10 -20 -134 -14 -304 14 -638 -76 -1017 -274 -417 -218 -665 -329 -946
-423 -429 -144 -762 -200 -1320 -221 -307 -11 -365 -8 -381 24 -34 62 50 648
135 944 117 405 274 692 505 924 146 145 263 228 477 337 343 174 601 251 984
296 78 9 490 -3 586 -18z m1797 -1446 c59 -144 106 -306 147 -510 45 -224 57
-310 43 -310 -6 0 -44 48 -86 108 -125 178 -242 298 -380 392 -20 14 -37 29
-37 33 0 13 68 133 112 199 56 84 149 191 158 181 5 -4 24 -46 43 -93z m-701
-579 c186 -48 334 -161 462 -354 65 -99 106 -180 193 -380 75 -175 109 -240
167 -316 46 -61 45 -49 25 -286 -37 -440 -167 -862 -387 -1250 -69 -122 -242
-379 -326 -484 -307 -384 -656 -682 -1005 -860 -179 -91 -375 -151 -494 -151
-84 0 -227 35 -354 85 -312 125 -555 294 -859 599 -313 313 -544 637 -730
1021 -148 307 -233 605 -275 970 -11 93 -8 489 3 501 3 2 122 9 264 14 543 20
1000 109 1504 292 178 65 321 129 700 315 449 221 578 274 735 299 105 17 278
10 377 -15z m2724 -2855 c1 0 6 -220 10 -487 l9 -486 303 -403 302 -403 0
-129 0 -128 -825 0 -825 0 0 129 0 128 304 407 303 406 7 471 c4 259 10 477
13 485 2 7 19 15 36 17 26 4 359 -3 363 -7z m-5371 -1202 c207 -59 604 -235
626 -276 6 -12 15 -87 19 -167 8 -153 11 -167 41 -270 28 -93 27 -97 -38 -130
-128 -64 -675 -271 -755 -286 -42 -8 -41 -8 -57 95 -23 149 -33 382 -28 615 8
318 33 445 85 445 10 0 58 -12 107 -26z m2696 -41 c35 -88 42 -188 43 -548 1
-358 -5 -447 -37 -542 -12 -37 -14 -38 -57 -37 -46 2 -228 65 -420 146 -87 37
-387 175 -398 184 -2 1 13 51 34 110 36 104 37 116 42 270 l5 162 36 15 c20 8
106 43 191 77 209 85 500 189 528 190 15 0 26 -8 33 -27z m-1186 -425 c-20
-114 -93 -256 -169 -326 -25 -23 -56 -42 -68 -42 -32 0 -117 93 -160 175 -32
63 -54 125 -72 208 l-6 27 241 0 241 0 -7 -42z m1924 -137 c143 -71 317 -153
386 -182 l125 -53 0 -1023 0 -1023 -522 1 c-516 1 -810 8 -823 21 -4 3 12 84
34 180 48 211 131 611 165 808 15 80 33 177 42 215 14 67 17 71 57 90 60 29
136 145 175 267 54 166 92 478 92 746 0 45 2 82 4 82 2 0 121 -58 265 -129z
m-4045 -18 c20 -388 72 -667 155 -831 38 -74 77 -111 137 -126 44 -11 49 -16
56 -47 4 -19 32 -164 63 -324 31 -159 85 -427 121 -594 46 -215 61 -308 54
-315 -17 -17 -412 -26 -965 -24 l-499 3 -8 35 c-45 207 -81 1096 -59 1465 15
266 36 429 58 468 22 37 52 54 263 143 86 36 255 114 375 174 121 59 225 109
231 109 8 1 14 -44 18 -136z m-1351 -665 c-16 -400 -2 -995 33 -1378 8 -91 16
-176 17 -190 l2 -25 -535 4 c-294 2 -538 5 -542 8 -12 7 -9 886 3 988 23 196
69 301 183 419 115 119 193 160 439 235 73 22 191 62 262 90 72 28 134 50 138
51 5 0 5 -91 0 -202z m3008 112 c124 -58 284 -67 404 -24 39 13 78 27 87 30
10 4 88 -28 187 -75 199 -95 375 -173 538 -237 157 -62 163 -67 163 -118 0
-101 -164 -922 -241 -1209 l-22 -80 -389 6 c-215 3 -393 8 -396 12 -3 3 11 20
32 37 44 36 86 117 86 166 0 95 -115 202 -218 202 -90 0 -181 -106 -182 -213
0 -61 9 -78 79 -151 l56 -58 -390 5 c-214 3 -398 9 -408 12 -10 4 -23 29 -32
59 -54 189 -255 1208 -255 1290 l0 31 259 104 c142 57 325 134 407 171 82 38
154 68 160 69 7 1 40 -12 75 -29z m4935 -74 c1 0 4 -182 8 -403 l7 -403 -825
0 -826 0 1 303 c1 166 4 347 8 402 l6 100 170 6 c134 4 1446 0 1451 -5z m2
-1423 l2 -203 -815 0 -815 0 2 198 3 197 35 6 c19 4 384 6 810 5 l775 -1 3
-202z"/>
<path d="M4637 1620 c-80 -25 -136 -105 -137 -193 0 -117 76 -197 190 -197
116 0 218 103 208 212 -12 118 -151 213 -261 178z"/>
<path d="M8092 1819 c-83 -42 -142 -140 -126 -212 9 -42 37 -98 61 -119 80
-73 233 -60 296 24 31 41 39 67 39 123 0 66 -18 109 -62 149 -64 57 -137 70
-208 35z"/>
<path d="M8905 1821 c-79 -37 -115 -95 -115 -187 0 -124 82 -200 206 -192 70
4 98 20 147 81 74 91 29 245 -88 298 -51 24 -99 23 -150 0z"/>
</g>
</svg>
