<?xml version="1.0" standalone="no"?>
<!DOCTYPE svg PUBLIC "-//W3C//DTD SVG 20010904//EN"
 "http://www.w3.org/TR/2001/REC-SVG-20010904/DTD/svg10.dtd">
<svg version="1.0" xmlns="http://www.w3.org/2000/svg"
 width="25" height="25" viewBox="0 0 1441.000000 1541.000000"
 preserveAspectRatio="xMidYMid meet">

<g transform="translate(0.000000,1541.000000) scale(0.100000,-0.100000)"
fill="#000000" stroke="none">
<path d="M12125 15373 c-44 -23 -65 -43 -88 -88 -20 -37 -22 -59 -25 -262 l-4
-223 -399 0 -399 0 0 200 0 200 -4000 0 -4000 0 0 -198 0 -199 -242 -6 c-278
-7 -354 -20 -492 -86 -216 -104 -374 -294 -438 -526 -22 -77 -22 -96 -22 -585
0 -490 0 -507 22 -584 76 -273 263 -471 530 -562 120 -41 227 -54 465 -54
l177 0 0 -200 0 -200 1600 0 1600 0 0 -400 0 -400 -1000 0 -1000 0 0 -737 0
-737 -2191 -4851 c-1205 -2667 -2194 -4856 -2196 -4863 -4 -9 158 -12 788 -12
l794 1 2190 3918 2190 3918 7 -51 c4 -28 100 -1791 215 -3918 l208 -3868 795
0 795 0 208 3868 c114 2127 211 3890 215 3918 l7 51 2190 -3918 2190 -3918
794 -1 c630 0 792 3 788 13 -2 6 -991 2195 -2196 4862 l-2191 4851 0 737 0
737 -1000 0 -1000 0 0 400 0 400 1600 0 1600 0 0 200 0 200 399 0 399 0 4
-222 c3 -204 5 -226 25 -263 36 -69 98 -107 173 -107 75 0 136 38 174 107 l21
40 0 1645 c0 1588 -1 1646 -19 1680 -26 49 -46 69 -88 91 -46 23 -131 24 -173
2z m-1315 -1773 l0 -1200 -3600 0 -3600 0 0 1200 0 1200 3600 0 3600 0 0
-1200z m-7600 0 l0 -800 -224 0 c-195 0 -232 3 -287 20 -124 38 -226 132 -269
246 -20 55 -20 69 -18 548 l3 491 26 55 c50 105 159 197 267 226 31 8 126 13
275 13 l227 1 0 -800z m8800 0 l0 -800 -400 0 -400 0 0 800 0 800 400 0 400 0
0 -800z m-4400 -2000 l0 -400 -400 0 -400 0 0 400 0 400 400 0 400 0 0 -400z
m2000 -1200 l0 -400 -2400 0 -2400 0 0 400 0 400 2400 0 2400 0 0 -400z
m-3710 -832 c0 -18 12 -250 26 -514 l26 -482 -2283 -4083 -2284 -4084 -379 -3
c-357 -2 -378 -1 -373 15 2 10 250 560 550 1223 299 663 1218 2697 2042 4520
823 1823 1510 3343 1525 3378 l29 62 560 0 561 0 0 -32z m2230 5 c0 -14 -110
-2068 -245 -4564 -135 -2496 -245 -4554 -245 -4574 l0 -35 -430 0 -430 0 0 40
c0 23 -110 2080 -245 4572 -135 2493 -245 4545 -245 4560 l0 28 920 0 920 0 0
-27z m3002 -3273 c818 -1812 1751 -3878 2073 -4590 322 -712 585 -1298 585
-1303 0 -4 -170 -6 -377 -5 l-378 3 -2284 4084 -2283 4084 26 481 c14 264 26
496 26 514 l0 32 562 -2 561 -3 1489 -3295z"/>
<path d="M6860 14374 c-90 -24 -177 -72 -247 -137 -131 -122 -193 -261 -193
-430 0 -177 50 -297 175 -422 123 -123 247 -176 415 -176 168 0 292 53 415
176 124 123 175 245 175 415 0 171 -52 294 -174 415 -88 87 -165 133 -271 160
-74 19 -222 18 -295 -1z"/>
<path d="M8125 13173 c-70 -37 -105 -94 -105 -173 0 -110 82 -192 190 -192
108 0 190 82 190 192 0 113 -79 190 -192 190 -29 -1 -66 -8 -83 -17z"/>
</g>
</svg>
